# xmcd
#
# Track frame offsets: 
#        150
#        7630
#        17322
#        27185
#        32207
#        38017
#        52570
#        59962
#        63487
#        67992
#        75437
#        88867
#        93312
#        103162
#        107945
#        110642
#        117330
#        124017
#        131877
#
# Disc length: 1898 seconds
#
# Revision: 4
# Processed by: cddbd v1.5.2PL0 Copyright (c) Steve Scherf et al.
# Submitted via: ExactAudioCopyFreeDBPlugin 1.0
#
DISCID=f4076813
DTITLE=Various Artist - SPY Kids
DYEAR=2001
DGENRE=Soundtrack
TTITLE0=Danny Elfman - Cortez Family
TTITLE1=Danny Elfman - My Parents Are Spies
TTITLE2=Los Lobos - Spy Wedding
TTITLE3=Danny Elfman - Spy Kids Demonstration
TTITLE4=Danny Elfman - Parents on Mission
TTITLE5=Danny Elfman - Kids Escape House
TTITLE6=Danny Elfman - Pod Chase
TTITLE7=Danny Elfman - The Safehouse
TTITLE8=Danny Elfman - The Third Brain
TTITLE9=Danny Elfman - Buddy Pack Escape
TTITLE10=Los Lobos - Oye Como Spy
TTITLE11=Alan Cumming - Floop's Song (Cruel World)
TTITLE12=Danny Elfman - Spy Go Round
TTITLE13=Danny Elfman - Minion
TTITLE14=Danny Elfman - Speaking Around Machetes
TTITLE15=Danny Elfman - The Spy Plane
TTITLE16=Danny Elfman - Floop's Castle
TTITLE17=Danny Elfman - Final Family Theme
TTITLE18=Fonda - Spy Kids (Save the World)
EXTD=
EXTT0=
EXTT1=
EXTT2=
EXTT3=
EXTT4=
EXTT5=
EXTT6=
EXTT7=
EXTT8=
EXTT9=
EXTT10=
EXTT11=
EXTT12=
EXTT13=
EXTT14=
EXTT15=
EXTT16=
EXTT17=
EXTT18=
PLAYORDER=
